<?xml version="1.0" standalone="no"?>
<!DOCTYPE svg PUBLIC "-//W3C//DTD SVG 20010904//EN"
 "http://www.w3.org/TR/2001/REC-SVG-20010904/DTD/svg10.dtd">
<svg version="1.0" xmlns="http://www.w3.org/2000/svg"
 width="576.000000pt" height="576.000000pt" viewBox="0 0 576.000000 576.000000"
 preserveAspectRatio="xMidYMid meet">
<metadata>
Created by potrace 1.14, written by Peter Selinger 2001-2017
</metadata>
<g transform="translate(0.000000,576.000000) scale(0.100000,-0.100000)"
fill="#000000" stroke="none">
<path d="M537 5124 c-1 -1 -38 -4 -83 -8 -75 -5 -93 -8 -134 -23 -8 -4 -20 -7
-26 -8 -23 -5 -120 -74 -158 -111 -50 -50 -97 -133 -118 -209 -15 -53 -17
-121 -17 -612 0 -535 0 -553 21 -615 55 -165 186 -287 348 -325 46 -10 187
-19 195 -12 2 3 24 3 47 -1 24 -3 62 -3 86 1 23 3 44 3 47 0 2 -4 31 -4 64 -1
34 3 61 3 61 0 0 -6 160 -2 177 4 7 3 14 2 17 -2 3 -4 32 -5 65 -2 34 3 61 3
61 0 0 -3 41 -5 90 -5 50 0 90 2 90 5 0 3 17 4 38 1 35 -3 43 -12 192 -213 85
-115 163 -218 173 -228 9 -11 17 -23 17 -29 0 -5 3 -11 8 -13 4 -1 105 -135
226 -296 212 -283 219 -294 218 -338 -1 -24 -4 -49 -7 -54 -3 -5 -2 -11 2 -13
5 -3 6 -46 3 -96 -3 -50 -3 -91 0 -91 3 0 3 -27 0 -61 -3 -33 -2 -62 2 -65 4
-3 5 -11 2 -18 -7 -19 -10 -236 -3 -236 3 0 3 -20 -1 -45 -4 -25 -3 -48 2 -51
4 -3 6 -10 3 -15 -3 -5 -6 -35 -5 -66 1 -61 1 -85 -1 -105 -3 -33 11 -151 22
-190 54 -181 228 -320 421 -334 35 -3 69 -7 76 -9 6 -2 12 -1 12 3 0 4 25 7
55 7 30 0 55 -2 55 -5 0 -3 28 -4 62 -2 35 1 89 3 121 5 31 1 57 0 57 -3 0 -3
26 -4 57 -2 32 1 76 2 98 1 22 0 46 0 53 0 24 2 43 2 97 1 30 -1 59 1 64 4 5
4 12 2 15 -2 3 -5 26 -6 51 -2 25 4 45 4 45 1 0 -3 24 -5 52 -4 29 1 53 3 53
3 0 1 11 3 25 4 94 7 212 62 284 133 41 40 104 132 112 161 2 9 11 42 19 72 8
30 13 60 11 67 -3 7 -2 15 3 17 4 3 5 26 1 51 -4 25 -4 45 0 45 4 0 4 20 0 45
-4 25 -4 45 0 45 4 0 4 20 0 45 -4 25 -4 45 0 45 3 0 4 23 0 50 -4 28 -4 50
-1 50 3 0 6 50 6 110 0 61 -2 110 -5 110 -3 0 -3 27 0 61 3 33 3 62 -1 64 -3
3 -3 24 0 47 4 24 4 62 1 86 -4 23 -4 45 -1 47 7 8 -1 143 -12 195 -9 43 -33
100 -62 145 -93 145 -240 224 -413 221 -39 -1 -72 1 -72 4 0 3 -26 4 -57 2
-32 -1 -76 -2 -98 -1 -22 0 -51 0 -65 -1 -14 -1 -31 -2 -37 -1 -7 0 -69 0
-138 0 -69 0 -133 0 -142 1 -10 0 -34 0 -53 -1 -19 0 -42 0 -50 0 -8 0 -63 1
-122 1 -86 1 -110 4 -126 18 -11 9 -116 145 -233 302 -117 157 -216 287 -221
288 -4 2 -8 10 -8 17 0 7 -3 15 -8 17 -10 4 -301 394 -317 424 -8 16 -10 37
-6 57 4 18 5 43 2 56 -4 13 -5 40 -3 61 3 33 8 39 33 42 16 3 31 2 34 0 4 -5
150 -4 273 1 34 1 62 0 62 -3 0 -4 35 -4 125 0 11 1 67 1 125 1 58 -1 133 0
168 1 34 2 62 1 62 -2 0 -3 26 -4 57 -2 32 1 76 2 98 1 22 0 51 0 65 1 14 1
31 2 38 1 6 0 69 0 140 0 70 0 136 -1 147 -1 22 -1 23 -1 80 0 22 0 88 -1 148
-2 59 -2 107 1 107 5 0 5 5 5 11 2 5 -4 41 -7 78 -6 l68 0 2 -37 c2 -36 2 -47
0 -74 -1 -7 1 -46 5 -86 19 -233 202 -419 430 -438 73 -6 165 -6 175 0 4 3 13
1 20 -3 7 -5 30 -5 52 -1 22 4 41 4 43 1 3 -4 34 -4 71 -1 36 3 71 3 76 -1 6
-3 28 -3 49 1 22 4 42 5 44 3 7 -7 126 -9 126 -2 0 3 23 3 50 -1 28 -4 50 -3
50 0 0 4 20 4 45 0 25 -4 45 -4 45 0 0 4 20 4 45 0 25 -4 45 -4 45 0 0 4 20 4
45 0 25 -4 47 -5 50 -2 2 3 22 6 44 8 162 15 327 154 385 324 l26 75 -3 565
c-2 311 -5 572 -8 580 -3 8 -11 33 -19 55 -39 118 -148 230 -272 279 -57 22
-174 42 -225 37 -22 -2 -41 -2 -98 -1 -30 1 -58 -1 -63 -4 -4 -2 -14 -1 -21 3
-7 5 -30 5 -51 1 -22 -4 -42 -5 -44 -3 -7 7 -126 9 -126 2 0 -3 -22 -3 -50 1
-27 4 -50 2 -50 -2 0 -5 -4 -7 -9 -3 -5 3 -31 5 -58 5 -26 0 -57 0 -68 -1 -11
0 -81 0 -155 0 -163 0 -253 -8 -285 -27 -5 -4 -15 -7 -21 -8 -22 -3 -119 -72
-157 -110 -71 -72 -126 -190 -133 -284 -1 -14 -3 -25 -4 -25 0 0 -2 -24 -3
-53 -1 -28 0 -52 3 -52 3 0 4 -17 2 -38 -4 -37 -5 -38 -45 -41 -22 -1 -44 -4
-48 -7 -4 -2 -10 -1 -13 4 -2 4 -32 5 -65 2 -34 -3 -61 -3 -61 0 0 6 -160 2
-177 -4 -7 -3 -14 -2 -17 2 -3 4 -32 5 -65 2 -34 -3 -61 -3 -61 0 0 6 -160 2
-177 -4 -7 -3 -14 -2 -17 2 -3 4 -32 5 -65 2 -34 -3 -61 -3 -61 0 0 6 -160 2
-177 -4 -7 -3 -14 -2 -17 2 -3 4 -32 5 -65 2 -34 -3 -61 -3 -61 0 0 3 -38 3
-85 0 -46 -3 -94 -3 -107 0 -12 3 -44 3 -70 0 -27 -4 -48 -4 -48 -1 0 7 -205
5 -223 -2 -7 -2 -21 -1 -32 3 -11 4 -34 4 -52 -1 -18 -4 -35 -4 -38 0 -2 4
-17 6 -33 3 -16 -2 -33 1 -36 7 -6 9 -7 48 -5 111 0 8 -2 45 -5 81 -19 234
-202 416 -438 435 -40 4 -79 6 -85 5 -22 -2 -41 -2 -98 -1 -30 1 -58 -1 -63
-4 -4 -2 -14 -1 -21 3 -7 5 -30 5 -51 1 -22 -4 -42 -5 -44 -3 -7 7 -126 9
-126 2 0 -3 -22 -3 -50 1 -27 4 -50 2 -50 -2 0 -5 -4 -7 -9 -3 -5 3 -34 5 -63
5 -59 -1 -56 -1 -186 3 -52 1 -94 1 -95 1z"/>
</g>
</svg>
